<?xml version="1.0" encoding="iso-8859-1"?>
<!-- Generator: Adobe Illustrator 17.1.0, SVG Export Plug-In . SVG Version: 6.00 Build 0)  -->
<!DOCTYPE svg PUBLIC "-//W3C//DTD SVG 1.1//EN" "http://www.w3.org/Graphics/SVG/1.1/DTD/svg11.dtd">
<svg version="1.1" id="Layer_1" xmlns="http://www.w3.org/2000/svg" xmlns:xlink="http://www.w3.org/1999/xlink" x="0px" y="0px"
	 viewBox="0 0 32.573 38" style="enable-background:new 0 0 32.573 38;" xml:space="preserve">
<path style="fill:#FFF;" d="M21.716,7.925c-1.98,0-3.831,0.55-5.429,1.493c-1.599-0.944-3.449-1.493-5.429-1.493
	C4.862,7.925,0,12.883,0,19c0,6.116,4.862,11.075,10.857,11.075c1.979,0,3.831-0.549,5.429-1.493
	c1.599,0.943,3.449,1.493,5.429,1.493c5.996,0,10.857-4.959,10.857-11.075C32.573,12.883,27.711,7.925,21.716,7.925z M19.001,19
	c0,2.452-1.053,4.651-2.714,6.173c-1.661-1.522-2.714-3.721-2.714-6.173s1.053-4.651,2.714-6.173
	C17.948,14.347,19.001,16.548,19.001,19z M2.714,19c0-4.58,3.653-8.306,8.143-8.306c1.081,0,2.112,0.22,3.058,0.612
	C12.026,13.3,10.857,16.008,10.857,19s1.168,5.702,3.058,7.694c-0.945,0.393-1.976,0.612-3.058,0.612
	C6.367,27.306,2.714,23.581,2.714,19z M21.716,27.306c-1.081,0-2.112-0.22-3.058-0.612c1.889-1.992,3.058-4.702,3.058-7.694
	s-1.169-5.7-3.058-7.692c0.945-0.393,1.976-0.612,3.058-0.612c4.49,0,8.143,3.725,8.143,8.306
	C29.859,23.581,26.206,27.306,21.716,27.306z"/>
</svg>
